<svg id="Layer_1" data-name="Layer 1" xmlns="http://www.w3.org/2000/svg" viewBox="0 0 512 512"><title>Customer Material Design Icons</title><path d="M273,248a96.08,96.08,0,1,0-96.08-96.08A96.06,96.06,0,0,0,273,248Z"/><path d="M59.46,264.32c-7.73-56-15.37-112-23.25-168C32.91,72.79,40.7,63.46,65,63.64c15.64.12,31.38-1.56,46.9,1.86,9.11,0,11.65,7,14.63,13.61,5.38,35.57,7.7,71.67,17.16,106.56,12.78,47.1,39.65,82.84,85,103.23,20.76,10.34,43.19,14.14,65.88,16.92,6.35.27,12.33,2.79,18.69,3,38.64,6.29,74.88,18.9,107.53,40.94,22.68,15.78,39.44,36.38,49.27,62.21,4,10.64,9.51,21.46,4.25,33.49a14.23,14.23,0,0,1-5,2.19c-70.56,1.58-141.1.53-211.63.61-35,0-70,1.27-105-.82-10.43-3.87-8.75-13.88-7.9-20.82,3.07-25-8.29-43.77-22.31-62.47-17.94-23.93-35.11-48.44-52.81-72.56C64,283.74,56.57,275.77,59.46,264.32Z"/></svg>